<svg xmlns="http://www.w3.org/2000/svg" enable-background="new 0 0 64 64" viewBox="0 0 64 64"><path d="M56.131,17.249l-2.839-2.839l-5.474-5.474c-0.315-0.309-0.717-0.47-1.119-0.47c-0.408,0-0.81,0.161-1.126,0.47
			L40.1,14.411l-2.839,2.839c-0.996,1.002-0.284,2.703,1.126,2.703l4.076-0.785v10.005c0,1.562-1.266,2.828-2.828,2.828h-4.641
			h-5.986h-4.641c-1.562,0-2.828-1.266-2.828-2.828V19.167l4.076,0.785c1.41,0,2.121-1.701,1.126-2.703L23.9,14.411l-5.474-5.474
			c-0.315-0.309-0.717-0.47-1.126-0.47c-0.402,0-0.804,0.161-1.119,0.47l-5.474,5.474l-2.839,2.839
			c-0.996,1.002-0.285,2.703,1.126,2.703l4.076-0.785v13.375c0,4.377,3.548,7.925,7.925,7.925h0.542h5.943v10.728
			c0,2.496,2.024,4.52,4.52,4.52h0c2.496,0,4.52-2.024,4.52-4.52V40.467h5.943h0.542c4.377,0,7.925-3.548,7.925-7.925V19.167
			l4.076,0.785C56.416,19.952,57.127,18.251,56.131,17.249z"/></svg>