<svg xmlns="http://www.w3.org/2000/svg" data-name="Layer 3" viewBox="0 0 64 64"><path d="M49,14H25q-.3,0-.6.013v.02c-.225-.011-.448-.033-.675-.033a13.665,13.665,0,0,0-5.316,1.072l-1.874-5.62A7.987,7.987,0,1,0,6.32,19.585l5.224,1.844a13.688,13.688,0,0,0,2.477,16.006L32.565,55.979A13.724,13.724,0,0,0,54.828,40.732,14,14,0,0,0,49,14ZM6.986,17.7a6.014,6.014,0,1,1,7.655-7.614l1.974,5.924a13.8,13.8,0,0,0-3.991,3.68ZM42.272,58a11.653,11.653,0,0,1-8.293-3.435L15.435,36.021A11.715,11.715,0,0,1,13.444,22.1L16,23a3.036,3.036,0,1,0,.68-1.881L14.6,20.386a11.712,11.712,0,0,1,17.424-.951L50.565,37.979A11.728,11.728,0,0,1,42.272,58ZM18,23a1,1,0,1,1,1,1A1,1,0,0,1,18,23ZM49,33.586,35.414,20H49Zm4.882,5.375a13.875,13.875,0,0,0-1.9-2.4L51,35.586V19a1,1,0,0,0-1-1H33.412a13.8,13.8,0,0,0-2.57-2H49a12,12,0,0,1,4.882,22.961Z"/><path d="M31.293,22.293l-13,13a1,1,0,0,0,0,1.414l18,18a1,1,0,0,0,1.414,0l13-13a1,1,0,0,0,0-1.414l-18-18A1,1,0,0,0,31.293,22.293ZM37,52.586,20.414,36,32,24.414,48.586,41Z"/><rect width="2" height="9.899" x="33.5" y="27.55" transform="rotate(-45 34.5 32.5)"/><rect width="2" height="2.828" x="40" y="37.586" transform="rotate(-45 41 39)"/><rect width="2" height="18.385" x="33.5" y="29.308" transform="rotate(-45 34.5 38.5)"/><rect width="2" height="12.021" x="28.25" y="33.24" transform="rotate(-45 29.25 39.25)"/></svg>