<svg xmlns="http://www.w3.org/2000/svg" data-name="Layer 2" viewBox="0 0 64 64"><path d="M53.54 43.29H53v-5.7a14.67 14.67 0 0 0 7 1.7 1 1 0 0 0 0-2A12.79 12.79 0 0 1 52.56 35c-.31-.21-.63-.44-1-.69l-.28-.31a8.42 8.42 0 0 0-5.36-1.91h-9.14A3.72 3.72 0 0 1 33 28.81a3 3 0 0 1 0-.43 1.82 1.82 0 0 1 0-.33 2.66 2.66 0 0 1 .1-.38c0-.11 0-.23.09-.34s.11-.21.16-.32.1-.23.17-.34a3.76 3.76 0 0 1 .25-.31c.08-.09.14-.19.23-.28a3.5 3.5 0 0 1 2.5-1H52a1 1 0 0 0 1-1v-2.3A2.91 2.91 0 0 0 50 19h-.62a26.53 26.53 0 0 1-2.8-2.31 1 1 0 1 0-1.4 1.43c.22.21.56.52 1 .88H34.65a2.74 2.74 0 0 1 .79-1.63l8.2-8.2a3.42 3.42 0 0 1 4-.62l11.9 6.15a1 1 0 1 0 .92-1.77l-11.9-6.19a5.41 5.41 0 0 0-6.34 1L34 15.91A4.74 4.74 0 0 0 32.65 19H11.22a2.92 2.92 0 0 0-3 2.86v20H8a1 1 0 0 0-1 1 1 1 0 0 0 .16.5H4a1 1 0 0 0-1 1v11.1a1 1 0 0 0 1 1h56a1 1 0 0 0 1-1v-4.75a7.45 7.45 0 0 0-7.46-7.42ZM10.25 21.82a.92.92 0 0 1 1-.86H50a.92.92 0 0 1 1 .8V23H36.54a5.51 5.51 0 0 0-3.92 1.63 5.41 5.41 0 0 0-1 1.38c-.07.14-.13.28-.19.43l-.05.11-.12.37v.18c0 .06-.05.22-.07.32a2.38 2.38 0 0 0-.05.26A2.66 2.66 0 0 0 31 28v.3a2.61 2.61 0 0 0 0 .28 2.81 2.81 0 0 0 0 .29V29c0 .21.07.42.1.62s0 .28.07.41a5.24 5.24 0 0 0 .3.78 1.18 1.18 0 0 0 .07.2 5.63 5.63 0 0 0 1.66 2 1.06 1.06 0 0 0-.08.4v1.13a1 1 0 0 0 2 0v-.58a6.09 6.09 0 0 0 1.61.25h9.17a6.52 6.52 0 0 1 4.1 1.38c.29.25.58.47.87.68l.11.09v6.93H47.9a1 1 0 0 0 .13-.46 1 1 0 0 0-1-1h-4.8a1 1 0 0 0-1 1 .92.92 0 0 0 .14.46h-2.66a1 1 0 0 0 .13-.46 1 1 0 0 0-1-1h-4.79a1 1 0 0 0-1 1 .91.91 0 0 0 .13.46h-2.66a.91.91 0 0 0 .13-.46 1 1 0 0 0-1-1h-4.79a1 1 0 0 0-1 1 .91.91 0 0 0 .13.46h-1.74a1 1 0 0 0 .16-.5 1 1 0 0 0-1-1H10.25ZM59 54.46H5v-9.17h48.54A5.45 5.45 0 0 1 59 50.71Z"/><path d="M37.84 50.29H7.17a1 1 0 0 0 0 2h30.67a1 1 0 0 0 0-2zm11.94-.16h-7.55a1 1 0 0 0 0 2h7.55a1 1 0 0 0 0-2zm5.53 0h-2a1 1 0 0 0 0 2h2a1 1 0 0 0 0-2zm-36.68-21.5v-4.21a1 1 0 0 0-1-1h-4.21a1 1 0 0 0-1 1v4.21a1 1 0 0 0 1 1h4.21a1 1 0 0 0 1-1zm-2-1h-2.21v-2.21h2.21zm-3.21 4.7a1 1 0 0 0-1 1v1.13a1 1 0 0 0 2 0v-1.13a1 1 0 0 0-1-1zm2.81 0a1 1 0 0 0-1 1v1.13a1 1 0 0 0 2 0v-1.13a1 1 0 0 0-1-1zm2.77 0a1 1 0 0 0-1 1v1.13a1 1 0 0 0 2 0v-1.13a1 1 0 0 0-1-1zm2.85 3.13a1 1 0 0 0 1-1v-1.13a1 1 0 0 0-2 0v1.13a1 1 0 0 0 1 1zm3.84 0a1 1 0 0 0 1-1v-1.13a1 1 0 0 0-2 0v1.13a1 1 0 0 0 1 1zm2.81 0a1 1 0 0 0 1-1v-1.13a1 1 0 0 0-2 0v1.13a1 1 0 0 0 1 1zm2.81 0a1 1 0 0 0 1-1v-1.13a1 1 0 0 0-2 0v1.13a1 1 0 0 0 1 1zm5.11 4.83h9.79a1 1 0 0 0 1-1V36a1 1 0 0 0-1-1h-9.79a1 1 0 0 0-1 1v3.31a1 1 0 0 0 1 .98zm1-3.31h7.79v1.31h-7.79z"/></svg>