<svg xmlns="http://www.w3.org/2000/svg" viewBox="0 0 64 64"><path fill="#9fa9b6" fill-rule="evenodd" d="m30.59 42.07-5.23-15.49-3.34-.42-1.64 1.82 3.15 14.59 3.48.72 3.58-1.22z"/><path fill="#8cebbc" fill-rule="evenodd" d="M41.5 34.6c.53-1.22.64-2.62.6-3.81-.06-1.59.87-2.49 2.17-1.58 1.76 1.24 3.81 3.54 4.08 7.63l-.88 2.79-5.22 1.08-1.9-2.89 1.15-3.22Z"/><path fill="#a1f3c0" fill-rule="evenodd" d="M36.6 42.16c.39-2.74-.76-6.31-1.7-8.8-.56-1.5.25-2.43 1.72-1.83 2.51 1.03 6.06 3.11 7.52 6.99l1.29 1.78-3.8 4.45-5.04-2.59Z"/><path fill="#b8f5d2" fill-rule="evenodd" d="M40.62 42.54c3.6-6.61 10.07-6.28 13.75-5.44 1.55.35 1.53 1.3.1 2.01-1.98.99-4.37 2.63-5.22 5.44l-4.16 1.61-4.47-3.62Z"/><path fill="#f5dcd2" fill-rule="evenodd" d="M32 42.01c-19.35 0-27 7.08-27 11.28v1.4c0 1.28 1.26 2.32 2.83 2.32h48.34c1.57 0 2.83-1.04 2.83-2.32v-1.4c0-4.2-7.65-11.28-27-11.28Z"/><path fill="#d9f0f3" fill-rule="evenodd" d="M34.1 15c.76-.9 1.9-1.47 3.18-1.47h2.86c0-3.61 2.93-6.54 6.54-6.54s6.54 2.93 6.54 6.54c2.31 0 4.17 1.86 4.17 4.16s-1.86 4.17-4.17 4.17H39.71L34.1 15Z"/><path fill="#8996a8" fill-rule="evenodd" d="m21.16 11.69-.35-1.06c-.36-1.07-1.31-1.79-2.38-1.77-.2 0-.4.03-.6.08-1.29.36-1.97 1.67-1.69 2.98l.23 1.09 4.79-1.32Z"/><path fill="#8fd7f8" fill-rule="evenodd" d="M18.72 12.18C10.33 14.49 4.98 22.39 5.58 30.75c.14 1.97 1.97 2.68 3.72 1.77 1.28-.66 2.94-1.46 4.88-2.28l4.55-18.06zm13.14 13.13c2.11-.3 3.94-.46 5.38-.54 1.97-.1 3.18-1.62 2.29-3.38-3.06-6.08-9.35-9.89-16.09-9.86-1.56 0-3.14.21-4.71.65l13.14 13.13z"/><path fill="#d9f0f3" fill-rule="evenodd" d="M20.07 11.99c-.45 0-.91.07-1.35.19-4.72 1.3-6.76 8.96-4.55 18.06 2.53-1.07 5.54-2.19 8.93-3.12a69.22 69.22 0 0 1 8.75-1.81h.01c-2.51-8.09-7.4-13.37-11.8-13.32Z"/><path fill="#f0cac5" fill-rule="evenodd" d="M45.7 51.61c-.55 0-1 .45-1 1s.45 1 1 1h3.19c.55 0 1-.45 1-1s-.45-1-1-1H45.7zm-22.08-2.38c-.55 0-1 .45-1 1s.45 1 1 1h7.79c.55 0 1-.46 1-1s-.45-1-1-1h-7.79z"/><circle cx="39.77" cy="49.65" r="1" fill="#f0cac5"/><circle cx="30.95" cy="45.77" r="1" fill="#f0cac5"/><circle cx="16.12" cy="52.38" r="1" fill="#f0cac5"/><path fill="#f0f8f9" fill-rule="evenodd" d="M17.08 15.3c-.26.02-.51.15-.68.35-3.17 3.83-1.79 8.62-1.79 8.62.12.43.52.72.96.72.09 0 .18-.01.27-.03.43-.12.73-.52.73-.97 0-.09-.01-.18-.04-.27 0 0-1.05-3.83 1.41-6.79a1.005 1.005 0 0 0-.13-1.41.98.98 0 0 0-.73-.22Z"/></svg>