<svg xmlns="http://www.w3.org/2000/svg" data-name="Layer 1" viewBox="0 0 512 512"><path fill="#f9b15e" d="M428.5 47.502v417a40.002 40.002 0 0 1-40 40h-275a15.006 15.006 0 0 1-15-15v-467a14.999 14.999 0 0 1 15-15h275a40.002 40.002 0 0 1 40 40Z"/><path fill="#f9a242" d="M388.5 7.502h-45a40.002 40.002 0 0 1 40 40v417a40.002 40.002 0 0 1-40 40h45a40.002 40.002 0 0 0 40-40v-417a40.002 40.002 0 0 0-40-40Z"/><path fill="#8b8893" d="M84.064 113.503a7.462 7.462 0 0 1-3.346-.793A41.004 41.004 0 1 1 140 76.001a7.5 7.5 0 0 1-15 0 26 26 0 1 0-37.579 23.291 7.501 7.501 0 0 1-3.357 14.211Z"/><path fill="#8b8893" d="M84.064 173.503a7.462 7.462 0 0 1-3.346-.793A41.004 41.004 0 1 1 140 136.001a7.5 7.5 0 0 1-15 0 26 26 0 1 0-37.579 23.291 7.501 7.501 0 0 1-3.357 14.211Z"/><path fill="#8b8893" d="M84.064 233.503a7.462 7.462 0 0 1-3.346-.793A41.004 41.004 0 1 1 140 196.001a7.5 7.5 0 0 1-15 0 26 26 0 1 0-37.579 23.291 7.501 7.501 0 0 1-3.357 14.211Z"/><path fill="#8b8893" d="M84.064 293.503a7.462 7.462 0 0 1-3.346-.793A41.004 41.004 0 1 1 140 256.001a7.5 7.5 0 0 1-15 0 26 26 0 1 0-37.579 23.291 7.501 7.501 0 0 1-3.357 14.211Z"/><path fill="#8b8893" d="M84.064 353.503a7.462 7.462 0 0 1-3.346-.793A41.004 41.004 0 1 1 140 316.001a7.5 7.5 0 0 1-15 0 26 26 0 1 0-37.579 23.291 7.501 7.501 0 0 1-3.357 14.211Z"/><path fill="#8b8893" d="M84.064 413.503a7.462 7.462 0 0 1-3.346-.793A41.004 41.004 0 1 1 140 376.001a7.5 7.5 0 0 1-15 0 26 26 0 1 0-37.579 23.291 7.501 7.501 0 0 1-3.357 14.211Z"/><path fill="#8b8893" d="M98.5 461.992a25.995 25.995 0 0 1 0-51.98c.17-.01.33-.01.5-.01a26.025 26.025 0 0 1 26 26 7.5 7.5 0 0 0 15 0 41.043 41.043 0 0 0-41-41h-.5a41.003 41.003 0 0 0 0 82Z"/><path fill="#f9a242" d="M190 7.502v496.61a2.551 2.551 0 0 1-.02.39h-14.96a2.551 2.551 0 0 1-.02-.39V7.502Z"/><rect width="159" height="51" x="225.5" y="52.5" fill="#fdd8ae" rx="8"/><path fill="#f9a242" d="M384.5 156h-159a7.5 7.5 0 0 1 0-15h159a7.5 7.5 0 0 1 0 15zm0 45h-159a7.5 7.5 0 0 1 0-15h159a7.5 7.5 0 0 1 0 15z"/></svg>