<svg xmlns="http://www.w3.org/2000/svg" enable-background="new 0 0 47.5 47.5" viewBox="0 0 47.5 47.5"><defs><clipPath id="a"><path d="M0 38h38V0H0v38Z"/></clipPath></defs><g clip-path="url(#a)" transform="matrix(1.25 0 0 -1.25 0 47.5)"><path fill="#3f7123" d="M0 0c0-2.2-1.8-4-4-4h-26c-2.2 0-4 1.8-4 4v13c0 2.2 1.8 4 4 4h26c2.2 0 4-1.8 4-4V0Z" transform="translate(36 5)"/><path fill="#3f7123" d="M36 16H2v6h34v-6z"/><path fill="#ccd6dd" d="M36 15H2v7h34v-7z"/><path fill="#292f33" d="m0 0-4-7h7l4 7H0zm-14 0-4-7h7l4 7h-7zm-11 0h4l-4-7v7z" transform="translate(27 22)"/><path fill="#ccd6dd" d="m0 0-32.994-8.208-1.691 6.793 32.996 8.208L0 0Z" transform="translate(34.994 30.207)"/><path fill="#292f33" d="m0 0-5.572 5.828-6.793-1.69 5.572-5.827L0 0Zm-13.586-3.379-5.572 5.827-6.793-1.69 5.572-5.827 6.793 1.69zM-32.744-.932l5.572-5.827-3.882-.966-1.69 6.793z" transform="translate(33.054 29.725)"/></g></svg>