<svg xmlns="http://www.w3.org/2000/svg" width="48" height="48"><path fill="none" stroke="#e6e6e6" stroke-linecap="round" stroke-linejoin="round" d="M15.551 37.53h15.322m-20.238 2.022h5.263m13.839 0h7.06"/><path style="text-indent:0;text-align:start;line-height:normal;text-transform:none;block-progression:tb" fill="#fc0" fill-rule="evenodd" d="M2458.743 1587.105a.31.31 0 0 0-.308.317c0 .217-.093.315-.307.315-.423-.01-.423.631 0 .625.207 0 .307.057.307.302-.01.422.631.422.625 0 0-.222.104-.302.31-.302.422.01.422-.63 0-.625-.28 0-.31-.16-.31-.315 0-.176-.14-.32-.317-.317zm-8.492 10.106a.427.427 0 0 0-.422.436c0 .298-.128.432-.423.432-.58-.01-.58.867 0 .858.284 0 .423.08.423.414-.01.58.866.58.857 0 0-.304.143-.414.424-.414.58.01.58-.866 0-.858-.382 0-.424-.218-.424-.432a.431.431 0 0 0-.435-.436z" color="#000" font-family="sans-serif" font-weight="400" overflow="visible" transform="translate(-2445.733 -1578.333)"/><path style="text-indent:0;text-align:start;line-height:normal;text-transform:none;block-progression:tb" fill="#12141a" fill-rule="evenodd" d="M2450.996 1604.188c-.13 0-.234.11-.232.24 0 .163-.07.237-.232.237-.318-.01-.318.475 0 .47.156 0 .232.044.232.228-.01.319.475.319.471 0 0-.167.078-.227.233-.227.318 0 .318-.476 0-.471-.21 0-.233-.12-.233-.237a.237.237 0 0 0-.24-.24z" color="#000" font-family="sans-serif" font-weight="400" overflow="visible" transform="translate(-2445.733 -1578.333)"/><path style="text-indent:0;text-align:start;line-height:normal;text-transform:none;block-progression:tb" fill="#ff8e00" fill-rule="evenodd" d="M2472.064 1586.28a.31.31 0 0 0-.308.318c0 .216-.092.315-.307.315-.423-.01-.423.63 0 .625.207 0 .307.057.307.301-.01.423.632.423.626 0 0-.222.103-.301.309-.301.422.01.422-.631 0-.625-.28 0-.31-.16-.31-.315a.314.314 0 0 0-.317-.318z" color="#000" font-family="sans-serif" font-weight="400" overflow="visible" transform="translate(-2445.733 -1578.333)"/><path style="text-indent:0;text-align:start;line-height:normal;text-transform:none;block-progression:tb" fill="#12141a" fill-rule="evenodd" d="M2482.803 1596.562c-.13 0-.234.11-.231.24 0 .162-.07.236-.232.236-.319-.01-.319.476 0 .471.156 0 .232.043.232.228-.01.318.475.318.47 0 0-.167.079-.228.233-.228.319.01.319-.475 0-.47-.21 0-.232-.12-.232-.238a.237.237 0 0 0-.24-.24z" color="#000" font-family="sans-serif" font-weight="400" overflow="visible" transform="translate(-2445.733 -1578.333)"/><path style="text-indent:0;text-align:start;line-height:normal;text-transform:none;block-progression:tb" fill="#ff8e00" fill-rule="evenodd" d="M2489.2 1604.35a.427.427 0 0 0-.423.435c0 .297-.127.432-.422.432-.58-.01-.58.866 0 .858.284 0 .422.08.422.414-.01.58.866.58.858 0 0-.304.142-.414.424-.414.58.01.58-.866 0-.858-.383 0-.424-.219-.424-.432a.431.431 0 0 0-.436-.436z" color="#000" font-family="sans-serif" font-weight="400" overflow="visible" transform="translate(-2445.733 -1578.333)"/><path fill="#fc0" d="M10.027 23.14c2.878-1.57 6.494-.5 8.067 2.384 1.574 2.885.5 6.474-2.378 8.044-2.877 1.57-6.476.53-8.05-2.354a5.937 5.937 0 0 1-.433-4.71 5.9 5.9 0 0 1 2.794-3.365z"/><path style="text-indent:0;text-align:start;line-height:normal;text-transform:none;block-progression:tb" fill="#fff" d="M2460.174 1601.347c-2.938-.864-6.02.826-6.887 3.772-.867 2.949.818 6.001 3.758 6.866.102.03.204.049.306.072a5.511 5.511 0 0 1-3.464-6.762 5.548 5.548 0 0 1 6.581-3.845c-.098-.036-.194-.074-.295-.104z" color="#000" font-family="sans-serif" font-weight="400" overflow="visible" transform="translate(-2445.733 -1578.333)"/><path style="text-indent:0;text-align:start;line-height:normal;text-transform:none;block-progression:tb" fill="#ff8e00" d="M2460.225 1601.362c2.938.864 4.615 3.952 3.749 6.9a5.52 5.52 0 0 1-6.877 3.738c-.101-.03-.197-.069-.296-.104 2.845.669 5.207-1.573 5.921-4.003.714-2.43-.05-5.624-2.8-6.603.101.022.202.043.303.073z" color="#000" font-family="sans-serif" font-weight="400" overflow="visible" transform="translate(-2445.733 -1578.333)"/><path style="text-indent:0;text-align:start;line-height:normal;text-transform:none;block-progression:tb" fill="#ff8e00" fill-rule="evenodd" d="M2456.455 1603.19v.015h-.019v.874h.898c.815 0 1.227.385 1.376.865h-2.255v.874h2.255c-.149.48-.56.867-1.376.867h-.891v.873h.232l2.693 2.632.611-.626-2.107-2.059a2.192 2.192 0 0 0 1.74-1.688h1.193v-.873h-1.193a2.17 2.17 0 0 0-.42-.874h1.613v-.874h-4.343z" color="#000" font-family="sans-serif" font-weight="400" overflow="visible" transform="translate(-2445.733 -1578.333)"/><path fill="none" stroke="#12141a" stroke-linecap="round" stroke-linejoin="round" stroke-miterlimit="10" d="M8.177 24.716a5.895 5.895 0 0 1 1.85-1.576c2.878-1.57 6.494-.5 8.067 2.384.368.675.592 1.39.68 2.107m0 1.467a5.895 5.895 0 0 1-.566 1.882 5.936 5.936 0 0 1-2.49 2.588c-2.877 1.57-6.476.53-8.05-2.354a5.937 5.937 0 0 1-.716-3.249m.283-1.46c.064-.197.139-.391.223-.58"/><path fill="#fc0" d="M36.536 23.28c2.799 1.708 3.68 5.374 1.969 8.179-1.712 2.805-5.357 3.67-8.156 1.962-2.798-1.707-3.698-5.343-1.986-8.148a5.938 5.938 0 0 1 3.862-2.73 5.899 5.899 0 0 1 4.311.738z"/><path style="text-indent:0;text-align:start;line-height:normal;text-transform:none;block-progression:tb" fill="#fff" d="M2479.305 1601.163c-3.061-.074-5.601 2.356-5.675 5.426a5.519 5.519 0 0 0 5.407 5.659c.106 0 .21-.01.314-.01a5.511 5.511 0 0 1-5.096-5.635 5.549 5.549 0 0 1 5.361-5.418c-.104-.01-.206-.021-.311-.023z" color="#000" font-family="sans-serif" font-weight="400" overflow="visible" transform="translate(-2445.733 -1578.333)"/><path style="text-indent:0;text-align:start;line-height:normal;text-transform:none;block-progression:tb" fill="#ff8e00" d="M2479.358 1601.164c3.062.074 5.481 2.623 5.407 5.694a5.519 5.519 0 0 1-5.674 5.391c-.106 0-.209-.016-.313-.024 2.921-.09 4.622-2.866 4.683-5.398.061-2.532-1.504-5.42-4.415-5.654.105 0 .207-.011.313-.01z" color="#000" font-family="sans-serif" font-weight="400" overflow="visible" transform="translate(-2445.733 -1578.333)"/><path fill="none" stroke="#12141a" stroke-linecap="round" stroke-linejoin="round" stroke-miterlimit="10" d="M34.246 22.467a5.896 5.896 0 0 1 2.29.813c2.799 1.708 3.68 5.374 1.969 8.179a5.916 5.916 0 0 1-1.485 1.643m-1.272.732a5.944 5.944 0 0 1-5.399-.413c-2.798-1.707-3.698-5.343-1.986-8.148a5.938 5.938 0 0 1 2.455-2.244m1.407-.486c.202-.043.407-.075.614-.096"/><path fill="#fc0" d="M23 13.861c4.933 0 8.937 4.019 8.937 8.96 0 4.945-4.004 8.91-8.936 8.91-4.93 0-8.934-3.965-8.934-8.91 0-1.766.511-3.415 1.394-4.804a9.014 9.014 0 0 1 2.139-2.33A8.873 8.873 0 0 1 23 13.86z"/><path style="text-indent:0;text-align:start;line-height:normal;text-transform:none;block-progression:tb" fill="#fff" d="M2468.734 1592.79c-4.607 0-8.338 3.746-8.338 8.367 0 4.622 3.727 8.313 8.338 8.313.16 0 .315-.016.472-.025-4.39-.242-7.869-3.825-7.869-8.289 0-4.46 3.48-8.095 7.866-8.341-.156-.01-.31-.025-.469-.025z" color="#000" font-family="sans-serif" font-weight="400" overflow="visible" transform="translate(-2445.733 -1578.333)"/><path style="text-indent:0;text-align:start;line-height:normal;text-transform:none;block-progression:tb" fill="#ff8e00" fill-rule="evenodd" d="M2477.013 1603.189v.014h-.019v.874h.898c.815 0 1.227.385 1.376.865h-2.255v.874h2.255c-.148.48-.56.867-1.376.867H2477.002v.873h.231l2.693 2.632.611-.626-2.107-2.059a2.192 2.192 0 0 0 1.74-1.687h1.193v-.874h-1.193a2.17 2.17 0 0 0-.42-.874h1.613v-.874h-4.343z" color="#000" font-family="sans-serif" font-weight="400" overflow="visible" transform="translate(-2445.733 -1578.333)"/><path style="text-indent:0;text-align:start;line-height:normal;text-transform:none;block-progression:tb" fill="#ff8e00" d="M2468.814 1592.79c4.607 0 8.338 3.746 8.338 8.367 0 4.622-3.727 8.313-8.338 8.313-.159 0-.314-.016-.471-.025 4.39-.242 6.847-4.479 6.847-8.288 0-3.81-2.46-8.096-6.845-8.342.156-.011.31-.024.47-.024z" color="#000" font-family="sans-serif" font-weight="400" overflow="visible" transform="translate(-2445.733 -1578.333)"/><path fill="none" stroke="#12141a" stroke-linecap="round" stroke-linejoin="round" stroke-miterlimit="10" d="M19.423 14.61A8.869 8.869 0 0 1 23 13.861c4.932 0 8.936 4.019 8.936 8.96 0 1.158-.22 2.262-.62 3.274m-1.06 1.936a8.943 8.943 0 0 1-2.104 2.076A8.927 8.927 0 0 1 23 31.731c-4.93 0-8.935-3.965-8.935-8.91 0-1.766.512-3.415 1.395-4.804m1.426-1.726c.227-.213.465-.415.713-.605"/><path style="text-indent:0;text-align:start;line-height:normal;text-transform:none;block-progression:tb" fill="#ff8e00" fill-rule="evenodd" d="M2465.652 1596.129v.012h-.027v1.25h1.283c1.166 0 1.755.55 1.967 1.236h-3.224v1.25h3.224c-.212.686-.8 1.24-1.967 1.24h-1.274v1.25h.332l3.851 3.762.874-.895-3.014-2.943c1.37-.277 2.248-1.293 2.489-2.414h1.706v-1.249h-1.706a3.102 3.102 0 0 0-.6-1.25h2.306v-1.249h-6.21z" color="#000" font-family="sans-serif" font-weight="400" overflow="visible" transform="translate(-2445.733 -1578.333)"/></svg>