<svg xmlns="http://www.w3.org/2000/svg" xmlns:xlink="http://www.w3.org/1999/xlink" width="512" height="512"><defs><path id="a" d="M301.545 309.848H0V7.146h301.545z"/></defs><g fill="none" fill-rule="evenodd"><path fill="#FEFEFE" d="M315.67 357.384c0 77.01-62.184 139.432-138.898 139.432S37.875 434.393 37.875 357.384c0-77.01 62.183-139.432 138.897-139.432S315.67 280.375 315.67 357.384"/><g transform="translate(26 198.886)"><mask id="b" fill="#fff"><use xlink:href="#a"/></mask><path fill="#2E2E30" d="M150.775 30.98c-70.05 0-127.033 57.203-127.033 127.522 0 70.304 56.983 127.515 127.033 127.515 70.043 0 127.026-57.21 127.026-127.515 0-70.32-56.983-127.522-127.026-127.522m0 278.871c-83.14 0-150.777-67.896-150.777-151.349 0-83.46 67.637-151.356 150.777-151.356 83.133 0 150.77 67.896 150.77 151.356 0 83.453-67.637 151.35-150.77 151.35" mask="url(#b)"/></g><path fill="#040605" d="M227.405 227.647c29.766 25.575 48.69 63.488 48.69 105.905 0 77.001-62.184 139.432-138.898 139.432-17.886 0-34.926-3.52-50.628-9.7 24.273 20.862 55.74 33.534 90.2 33.534 76.714 0 138.898-62.43 138.898-139.431 0-59.054-36.62-109.409-88.262-129.74" opacity=".15"/><path fill="#C4C3C3" d="M37.874 357.383c0 6.777.506 13.435 1.44 19.958H314.23c.933-6.523 1.44-13.18 1.44-19.958 0-6.777-.507-13.434-1.44-19.957H39.314a140.686 140.686 0 0 0-1.44 19.957"/><path fill="#2E2E30" d="M50.006 365.424h253.53c.181-2.709.26-5.394.26-8.04 0-2.653-.079-5.339-.26-8.032H50.005a124.663 124.663 0 0 0-.261 8.032c0 2.646.087 5.331.26 8.04m264.23 23.835H39.306c-5.903 0-10.913-4.362-11.752-10.233-1.03-7.27-1.551-14.547-1.551-21.642 0-7.095.522-14.38 1.55-21.634.848-5.879 5.85-10.233 11.754-10.233h274.93c5.904 0 10.914 4.354 11.753 10.233 1.028 7.254 1.55 14.54 1.55 21.634 0 7.095-.522 14.372-1.55 21.642-.831 5.871-5.85 10.233-11.753 10.233"/><path fill="#FEFEFE" d="M370.365 496.816c-54.601 0-99.278-44.849-99.278-99.66v-282.05c0-54.81 44.677-99.66 99.278-99.66 54.602 0 99.278 44.85 99.278 99.66v282.05c0 54.811-44.676 99.66-99.278 99.66"/><path fill="#2E2E30" d="M370.368 27.366c-48.198 0-87.414 39.358-87.414 87.742v282.05c0 48.384 39.216 87.742 87.414 87.742 48.199 0 87.407-39.358 87.407-87.742v-282.05c0-48.384-39.208-87.742-87.407-87.742m0 481.369c-61.289 0-111.157-50.053-111.157-111.577v-282.05c0-61.524 49.868-111.577 111.157-111.577 61.29 0 111.15 50.053 111.15 111.577v282.05c0 61.524-49.86 111.577-111.15 111.577"/><path fill="#E42E44" d="M370.365 15.446c-54.601 0-99.278 44.848-99.278 99.66v141.028h198.556V115.106c0-54.812-44.676-99.66-99.278-99.66"/><path fill="#2E2E30" d="M282.955 244.212h174.82V115.108c0-48.384-39.207-87.742-87.406-87.742-48.198 0-87.414 39.358-87.414 87.742v129.104Zm186.692 23.834H271.083c-6.553 0-11.871-5.339-11.871-11.917v-141.02c0-61.526 49.868-111.578 111.157-111.578 61.29 0 111.15 50.052 111.15 111.577v141.02c0 6.58-5.319 11.918-11.872 11.918Z"/><path fill="#040605" d="M370.365 15.446c-6.774 0-13.383.699-19.786 2.01 45.207 9.272 79.492 49.631 79.492 97.65v282.05c0 48.018-34.285 88.377-79.492 97.649a98.503 98.503 0 0 0 19.786 2.01c54.602 0 99.278-44.849 99.278-99.66v-282.05c0-54.81-44.676-99.66-99.278-99.66" opacity=".15"/></g></svg>