<svg xmlns="http://www.w3.org/2000/svg" width="512" height="512"><path fill="#dd6858" d="M157.931 231.205H354.07v49.59H157.931z"/><g transform="matrix(1.03026 0 0 1.01083 -.412 -531.297)"><rect width="48.571" height="162.857" x="98.261" y="714.934" fill="#3e6172" ry="24.286" transform="matrix(1 0 0 1.21491 0 -188.648)"/><rect width="42.857" height="105.378" x="49.516" y="743.673" fill="#6ebec5" ry="15.714" transform="matrix(1 0 0 1.21491 0 -188.648)"/><rect width="28.233" height="48.95" x="15.93" y="771.887" fill="#f9d54b" ry="7.299" transform="matrix(1 0 0 1.21491 0 -188.648)"/><g transform="matrix(-1 0 0 1.21491 497.762 -188.648)"><rect width="48.571" height="162.857" x="98.261" y="714.934" fill="#3e6172" ry="24.286"/><rect width="42.857" height="105.378" x="49.516" y="743.673" fill="#6ebec5" ry="15.714"/><rect width="28.233" height="48.95" x="15.93" y="771.887" fill="#f9d54b" ry="7.299"/></g></g></svg>