<svg xmlns="http://www.w3.org/2000/svg" data-name="Layer 1" viewBox="0 0 512 512"><rect width="190" height="283" x="7.5" y="221.5" fill="#7dc7a2" rx="15"/><path fill="#56bc8d" d="M182.5 221.5h-45a15 15 0 0 1 15 15v253a15 15 0 0 1-15 15h45a15 15 0 0 0 15-15v-253a15 15 0 0 0-15-15Z"/><path fill="#fff" d="M139.966 394H65.034a7.5 7.5 0 0 1 0-15h74.932a7.5 7.5 0 0 1 0 15zm0 45H65.034a7.5 7.5 0 0 1 0-15h74.932a7.5 7.5 0 0 1 0 15z"/><path fill="#8b8893" d="M104.074 265.963a7.506 7.506 0 0 1-7.06-10.03A187.74 187.74 0 0 0 108 185.496a187.575 187.575 0 0 0-9.132-51.283 7.5 7.5 0 0 1 14.262-4.648 202.64 202.64 0 0 1 9.86 55.385 202.649 202.649 0 0 1-11.856 76.04 7.502 7.502 0 0 1-7.06 4.973Z"/><circle cx="102.5" cy="273.5" r="22" fill="#fff"/><path fill="#e1e1e3" d="M102.5 251.5a21.955 21.955 0 0 0-7.5 1.313 22.007 22.007 0 0 1 0 41.374 22.002 22.002 0 1 0 7.5-42.687Z"/><circle cx="391" cy="211" r="113.5" fill="#fee27d"/><path fill="#fddd5a" d="M391 97.5a114.008 114.008 0 0 0-22.5 2.234 113.522 113.522 0 0 1 0 222.532A113.508 113.508 0 1 0 391 97.5Z"/><path fill="#8b8893" d="M389.547 139.922a7.506 7.506 0 0 1-7.076-9.986 186.415 186.415 0 0 0 1.4-120.107 7.5 7.5 0 0 1 14.258-4.658 201.404 201.404 0 0 1-1.506 129.734 7.503 7.503 0 0 1-7.076 5.017Z"/><circle cx="391" cy="149.5" r="22" fill="#fff"/><path fill="#e1e1e3" d="M391 127.5a21.955 21.955 0 0 0-7.5 1.313 22.007 22.007 0 0 1 0 41.374A22.002 22.002 0 1 0 391 127.5Z"/><path fill="#ed4769" d="m400.704 429.345-147.816 46.64a15 15 0 0 1-18.818-9.79L161.5 236.207a15 15 0 0 1 .71-10.853l29.143-62.5a15 15 0 0 1 9.08-7.966l58.94-18.597a15 15 0 0 1 12.008 1.311l59.735 34.457a15 15 0 0 1 6.81 8.48l72.57 229.987a15 15 0 0 1-9.792 18.819Z"/><path fill="#eb304a" d="m410.495 410.526-72.569-229.988a15 15 0 0 0-6.81-8.48l-59.735-34.456a15 15 0 0 0-12.009-1.311l-5.986 1.889 32.73 18.879a15 15 0 0 1 6.81 8.48l72.57 229.987a15 15 0 0 1-9.792 18.819l-125.5 39.6 3.866 12.25a15 15 0 0 0 18.818 9.79l147.816-46.64a15 15 0 0 0 9.791-18.819Z"/><path fill="#fff" d="M260.432 342.39a7.501 7.501 0 0 1-2.255-14.654l58.938-18.598a7.5 7.5 0 0 1 4.514 14.305L262.69 342.04a7.487 7.487 0 0 1-2.258.35zm15 45a7.501 7.501 0 0 1-2.255-14.654l58.938-18.598a7.5 7.5 0 0 1 4.514 14.305L277.69 387.04a7.487 7.487 0 0 1-2.258.35z"/><path fill="#8b8893" d="M239.004 185.75c-.086 0-.172 0-.258-.004a7.5 7.5 0 0 1-7.243-7.749A179.032 179.032 0 0 0 197.5 66.545a7.5 7.5 0 1 1 12.146-8.8 194.022 194.022 0 0 1 36.85 120.758 7.5 7.5 0 0 1-7.492 7.247Z"/><circle cx="245.55" cy="195.179" r="22" fill="#fff"/><path fill="#e1e1e3" d="M266.53 188.56a22 22 0 0 0-27.6-14.361c-.297.094-.589.197-.88.302a21.994 21.994 0 0 1 0 41.356 21.996 21.996 0 0 0 28.48-27.298Z"/></svg>