<svg xmlns="http://www.w3.org/2000/svg" viewBox="0 0 64 64"><circle cx="52" cy="25" r="2" fill="#627c12"/><ellipse cx="32" cy="20" fill="#995b3f" rx="31" ry="3"/><path fill="#93621d" d="M60.64 3.44c.37.2.46.75.2 1.24l-2.45 4.64c-.14-.15-.29-.3-.46-.43-.68-.54-1.44-.85-2.2-.96l2.45-4.65c.26-.49.77-.73 1.13-.54l1.33.7z"/><path fill="#999" d="M48.43 57.86c3.61-.46 6.72-.98 9.13-1.38l-.12.8a4 4 0 0 1-3.16 3.33C49.99 61.49 41.24 63 32 63s-17.99-1.51-22.28-2.39a4 4 0 0 1-3.16-3.33l-.12-.8c2.41.4 5.52.92 9.13 1.38 3.28.43 6.97.81 10.92 1a109.766 109.766 0 0 0 11.12 0c3.91-.2 7.57-.57 10.82-1zM63 20l-.79 5.29c-1.09.53-3.26 1.02-6.23 1.43C55.84 25.75 55 25 54 25c1.1 0 2-.9 2-2 0-.39-.11-.75-.31-1.06.99-.11 1.89-.23 2.7-.36 2.92-.46 4.61-1 4.61-1.58zm-14 3c-1.1 0-2 .9-2 2s.9 2 2 2c0 .14.02.29.05.42-2.41.18-5.06.33-7.89.43-2.89.1-5.97.15-9.16.15s-6.26-.05-9.16-.16c-4.04-.14-7.73-.37-10.88-.67-5.01-.48-8.65-1.14-10.17-1.88l-.78-5.2c.21.69 2.79 1.31 6.98 1.81 2.99.35 6.8.64 11.16.83h.01c2.44.11 5.06.19 7.8.23 1.26.02 2.56.03 3.87.03.06.01.11.01.17.01.03 0 .07 0 .1-.01.3.01.6.01.9.01 3.34 0 6.56-.05 9.57-.15 1.16-.03 2.28-.07 3.37-.12h.01c.97-.05 1.92-.1 2.83-.15A2 2 0 0 0 49 23zm11.33 14.92-.93 6.22c-2.28.49-5.55.91-9.5 1.22-3.22.26-6.9.45-10.87.54-2.26.07-4.61.1-7.03.1s-4.77-.03-7.03-.1c-3.97-.09-7.65-.28-10.87-.54-3.95-.31-7.22-.73-9.5-1.22l-.93-6.22c2.15.55 5.53 1.03 9.72 1.38 3.2.27 6.88.47 10.87.59a273.593 273.593 0 0 0 15.48 0c3.99-.12 7.67-.32 10.87-.59 4.19-.35 7.57-.83 9.72-1.38z"/><path fill="#995b3f" d="m51.48 31.93-.87 7.37c-3.2.27-6.88.47-10.87.59l1.42-12.04c2.83-.1 5.48-.25 7.89-.43.14.68.64 1.24 1.29 1.46a2.007 2.007 0 0 0 1.14 3.05zM49.9 45.36l-1.47 12.5c-3.25.43-6.91.8-10.82 1l1.42-12.95v-.01c3.97-.09 7.65-.28 10.87-.54zm-24.93.55 1.52 12.95c-3.95-.19-7.64-.57-10.92-1l-1.47-12.5c3.22.26 6.9.45 10.87.54v.01zm-2.13-18.07 1.42 12.05c-3.99-.12-7.67-.32-10.87-.59l-1.43-12.13c3.15.3 6.84.53 10.88.67z"/><path fill="#995b3f" d="m59.4 44.14-1.84 12.34c-2.41.4-5.52.92-9.13 1.38l1.47-12.5c3.95-.31 7.22-.73 9.5-1.22z"/><path fill="#9e7059" d="m62.21 25.29-1.88 12.63c-2.15.55-5.53 1.03-9.72 1.38l.87-7.37c.16.05.34.07.52.07 1.1 0 2-.9 2-2 0-.37-.1-.72-.28-1.02A2.006 2.006 0 0 0 56 27c0-.1-.01-.19-.02-.28 2.97-.41 5.14-.9 6.23-1.43zM39.03 45.9v.01l-1.42 12.95a109.766 109.766 0 0 1-11.12 0l-1.52-12.95v-.01c2.26.07 4.61.1 7.03.1s4.77-.03 7.03-.1z"/><path fill="gray" d="M37.61 58.86c-.322.016-.655.023-.981.037a38.71 38.71 0 0 1-8.556 4.014c1.292.055 2.603.089 3.927.089 9.24 0 17.99-1.51 22.28-2.39a4 4 0 0 0 3.16-3.33l.12-.8c-2.41.4-5.52.92-9.13 1.38-3.25.43-6.91.8-10.82 1zM63 20c0 .471-1.131.915-3.114 1.312a89.225 89.225 0 0 1-1.269 4.981c1.627-.308 2.86-.646 3.593-1.003L63 20zM50.137 45.34c3.842-.308 7.03-.72 9.263-1.2l.93-6.22c-1.578.404-3.825.769-6.563 1.074a60.15 60.15 0 0 1-3.63 6.346z"/><path fill="#915036" d="m37.68 58.219-.07.641c3.91-.2 7.57-.57 10.82-1l1.42-12.074c-3.303 4.917-7.337 9.176-12.17 12.433z"/><path fill="#9e7059" d="m49.9 45.36-.05.426c.098-.146.19-.298.287-.445l-.237.019z"/><path fill="#995b3f" d="M62.21 25.29c-.734.357-1.966.695-3.593 1.003-1.261 4.408-2.863 8.69-4.849 12.701 2.738-.305 4.984-.67 6.563-1.074l1.879-12.63z"/><path fill="#9e7059" d="m37.61 58.86.07-.641c-.345.233-.698.456-1.051.678.326-.014.659-.021.981-.037zm3.55-31.01-1.42 12.04a273.593 273.593 0 0 1-15.48 0l-1.42-12.05c2.9.11 5.97.16 9.16.16s6.27-.05 9.16-.15zM14.1 45.36l1.47 12.5c-3.61-.46-6.72-.98-9.13-1.38L4.6 44.14c2.28.49 5.55.91 9.5 1.22zm-2.14-18.19 1.43 12.13c-4.19-.35-7.57-.83-9.72-1.38L1.79 25.29c1.52.74 5.16 1.4 10.17 1.88z"/><path fill="#76991f" d="M55.98 26.72A2.006 2.006 0 0 1 54 29c-.1 0-.19-.01-.28-.02a1.98 1.98 0 0 1-1.22-.67c.31-.35.5-.81.5-1.31s-.19-.96-.5-1.31c.36-.42.9-.69 1.5-.69 1 0 1.84.75 1.98 1.72z"/><path fill="#627c12" d="M51 29c.6 0 1.14-.27 1.5-.69.3.35.73.6 1.22.67.18.3.28.65.28 1.02 0 1.1-.9 2-2 2-.18 0-.36-.02-.52-.07a2.007 2.007 0 0 1-1.14-3.05c.21.08.43.12.66.12z"/><path fill="#90b541" d="M52.5 28.31c-.36.42-.9.69-1.5.69-.23 0-.45-.04-.66-.12-.65-.22-1.15-.78-1.29-1.46-.03-.13-.05-.28-.05-.42 0-1.1.9-2 2-2 .6 0 1.14.27 1.5.69.31.35.5.81.5 1.31s-.19.96-.5 1.31z"/><path fill="#627c12" d="M51 25c-1.1 0-2 .9-2 2-1.1 0-2-.9-2-2s.9-2 2-2c0 1.1.9 2 2 2z"/><path fill="#76991f" d="M55.69 21.94c.2.31.31.67.31 1.06 0 1.1-.9 2-2 2-.6 0-1.14-.27-1.5-.69.31-.35.5-.81.5-1.31s-.19-.96-.5-1.31A1.982 1.982 0 0 1 54 21a2 2 0 0 1 1.69.94z"/><path fill="#627c12" d="M52.5 21.69c-.36-.42-.9-.69-1.5-.69-.23 0-.45.04-.66.12a1.974 1.974 0 0 1-.22-1.78A1.99 1.99 0 0 1 52 18c1.1 0 2 .9 2 2 0 .37-.1.72-.29 1.02-.48.07-.91.32-1.21.67z"/><path fill="#76991f" d="M47 21c0-1.1.9-2 2-2 .11 0 .21.01.31.02.3.05.57.16.81.32a1.974 1.974 0 0 0 .22 1.78A1.99 1.99 0 0 0 49 23a2 2 0 0 1-1.22-.42c-.3-.23-.54-.55-.66-.92-.08-.21-.12-.43-.12-.66z"/><path fill="#90b541" d="M52.5 24.31c-.36.42-.9.69-1.5.69-1.1 0-2-.9-2-2 0-.87.56-1.61 1.34-1.88.21-.08.43-.12.66-.12.6 0 1.14.27 1.5.69.31.35.5.81.5 1.31s-.19.96-.5 1.31zm-3.19-5.29a6.971 6.971 0 0 0-.11-6.27c.96-.55 1.75-1.33 2.12-2.35.06-.15.12-.31.2-.46.8-1.51 2.51-2.27 4.21-2.01.76.11 1.52.42 2.2.96.17.13.32.28.46.43.87.92 1.3 2.19 1.12 3.39-.1.65-.35 1.22-.69 1.69-.82 1.12-.97 2.61-.58 3.99.01.03.02.06.02.09.28 1.01.33 2.07.13 3.09v.01c-.81.13-1.71.25-2.7.36a2 2 0 0 0-1.98-.92c.19-.3.29-.65.29-1.02 0-1.1-.9-2-2-2-.87 0-1.61.56-1.88 1.34-.24-.16-.51-.27-.81-.32z"/><path fill="#76991f" d="M53.55 18.754c.277.343.45.773.45 1.246 0 .37-.1.72-.29 1.02a2 2 0 0 1 1.98.92c.99-.11 1.89-.23 2.7-.36v-.01c.2-1.02.15-2.08-.13-3.09 0-.03-.01-.06-.02-.09-.39-1.38-.24-2.87.58-3.99.34-.47.59-1.04.69-1.69.132-.882-.067-1.801-.527-2.592-.983 3.36-2.735 6.516-5.433 8.636z"/><path fill="#90b541" d="m7.65 9.2.64 1.51C4.69 14.19 1 13 1 13c2.63-4.28 5.38-4.26 6.65-3.8z"/><path fill="#93621d" d="m9.355 7.256 2.525 4.324c-.29.42-.52.9-.7 1.42a6.44 6.44 0 0 0-.75-.05c-.39 0-.77.04-1.13.12l-1.01-2.36-.64-1.51-.365-.856a1 1 0 0 1 .366-1.224l.286-.191a.999.999 0 0 1 1.418.327z"/><path fill="#d8234e" d="M16.4 9.79C14.55 13.25 13.15 18.36 18 22c.36.27.74.51 1.15.73-4.36-.19-8.17-.48-11.16-.83l.01-.11c-.93-1.04-1.54-2.22-1.79-3.39-.34-1.55-.04-3.07.95-4.13.58-.62 1.31-1.01 2.14-1.19v-.01c.36-.08.74-.12 1.13-.12.24 0 .5.02.75.05.18-.52.41-1 .7-1.42.55-.79 1.29-1.38 2.19-1.66.66-.21 1.65-.27 2.33-.13z"/><path fill="#c90030" d="M18 22c-4.85-3.64-3.45-8.75-1.6-12.21-.68-.14-1.67-.08-2.33.13-.468.145-.89.378-1.267.675.115 4.143.414 8.268-1.494 11.638 2.323.201 4.958.371 7.84.497A9.033 9.033 0 0 1 18 22z"/><path fill="#f2bc36" d="M26.96 22.96c-2.74-.04-5.36-.12-7.8-.23h-.01c-.41-.22-.79-.46-1.15-.73-4.85-3.64-3.45-8.75-1.6-12.21C17.61 7.55 19 6 19 6v1s-4.84 12.89 7.19 14.08a6.961 6.961 0 0 0 4.64 1.91c-1.31 0-2.61-.01-3.87-.03z"/><path fill="#f48e06" d="M26.19 21.08c-2.532-.25-4.31-1.023-5.549-2.081-.301 1.339-.949 2.479-2.186 3.289.228.15.448.309.696.442h.01c2.44.11 5.06.19 7.8.23 1.26.02 2.56.03 3.87.03a6.962 6.962 0 0 1-4.641-1.91z"/><path fill="#ffca3a" d="M22 4v3.96c0 3.06.85 5.47 2.03 7.35 1.49 2.37 3.51 3.87 4.99 4.74.52.3.3 1.1-.31 1.11-.91.03-1.75 0-2.52-.08C14.16 19.89 19 7 19 7V4h-2c-.56 0-1-.45-1-1V2c0-.55.44-1 1-1h7c.55 0 1 .45 1 1v1c0 .55-.45 1-1 1h-2z"/><path fill="#ff9700" d="M29.02 20.05c-1.48-.87-3.5-2.37-4.99-4.74a13.165 13.165 0 0 1-.728-1.337c.223 2.119.14 4.201-1.541 5.816 1.131.647 2.579 1.108 4.429 1.291.77.08 1.61.11 2.52.08.61-.01.83-.81.31-1.11z"/><path fill="#ff9700" d="M30.83 22.99a6.961 6.961 0 0 1-4.64-1.91c.77.08 1.61.11 2.52.08.61-.01.83-.81.31-1.11-1.48-.87-3.5-2.37-4.99-4.74A7.01 7.01 0 0 1 31 9a6.98 6.98 0 0 1 6 3.39 7.012 7.012 0 0 1 0 7.22 6.973 6.973 0 0 1-5.9 3.38c-.09.01-.18.01-.27 0z"/><path fill="#ff740d" d="M37 12.39a7.003 7.003 0 0 0-3.022-2.715c-.121 5.419-.942 12.052-6.473 12.379.984.568 2.119.91 3.325.937.09.01.18.01.27 0 2.5-.03 4.69-1.37 5.9-3.38a7.012 7.012 0 0 0 0-7.221z"/><path fill="#ff9700" d="M49 19c-1.1 0-2 .9-2 2 0 .23.04.45.12.66-.65.48-1.38.84-2.17 1.07h-.01c-1.09.05-2.21.09-3.37.12-1.94-.4-3.58-1.6-4.57-3.24a7.012 7.012 0 0 0 0-7.22A6.99 6.99 0 0 1 43 9c2.7 0 5.03 1.52 6.2 3.75a6.971 6.971 0 0 1 .11 6.27c-.1-.01-.2-.02-.31-.02z"/><path fill="#ff740d" d="M49.2 12.75a7.012 7.012 0 0 0-2.372-2.601c-.737 4.71-3.838 9.109-8.303 11.225.864.72 1.9 1.24 3.045 1.476 1.16-.03 2.28-.07 3.37-.12h.01c.79-.23 1.52-.59 2.17-1.07-.08-.21-.12-.43-.12-.66 0-1.1.9-2 2-2 .11 0 .21.01.31.02a6.971 6.971 0 0 0-.11-6.27z"/><circle cx="44.5" cy="19.5" r=".5" fill="#f2680a"/><circle cx="42.5" cy="20.5" r=".5" fill="#f2680a"/><circle cx="41.5" cy="18.5" r=".5" fill="#f2680a"/><circle cx="39.5" cy="19.5" r=".5" fill="#f2680a"/><circle cx="34.5" cy="17.5" r=".5" fill="#f2680a"/><circle cx="33.5" cy="19.5" r=".5" fill="#f2680a"/><circle cx="31.5" cy="20.5" r=".5" fill="#f2680a"/><circle cx="31.5" cy="18.5" r=".5" fill="#f2680a"/><circle cx="29.5" cy="17.5" r=".5" fill="#f2680a"/><path fill="#f47196" d="M8.384 15.406c-1.107.247-1.263 2.802-.154 2.555.524-.117.31-.72.471-1.337.178-.687.267-1.348-.317-1.218z"/><path fill="#ffca3a" d="M27.888 12.119c-1.113-.218-2.281 2.06-1.166 2.279.527.103.573-.535.968-1.036.438-.558.785-1.128.198-1.243zm12.86-1.053c-.613-.378-1.962.803-1.347 1.182.29.179.498-.213.878-.443.423-.256.793-.54.469-.739z"/><path fill="#b3d169" d="M55.404 9.636c-.774-.829-3.056.332-2.281 1.162.366.393.778-.097 1.391-.272.683-.194 1.298-.453.89-.89z"/><path fill="#76991f" d="M51.759 30.19c-.322 0-.322.5 0 .5.321 0 .322-.5 0-.5z"/><path fill="#b3d169" d="M54.759 26.19c-.322 0-.322.5 0 .5.321 0 .322-.5 0-.5zm-7-6c-.322 0-.322.5 0 .5.321 0 .322-.5 0-.5z"/><path fill="#76991f" d="M51.759 19.31c-.322 0-.322.5 0 .5.321 0 .322-.5 0-.5zm-4 5c-.322 0-.322.5 0 .5.321 0 .322-.5 0-.5zm6.616 2.085c-.322 0-.322.5 0 .5s.322-.5 0-.5z"/><path fill="#b3d169" d="M50.804 26.283c-.643 0-.644 1 0 1s.645-1 0-1zm0-3.918c-.643 0-.644 1 0 1s.645-1 0-1z"/><path fill="#ccc" d="M5.917 40.144a.51.51 0 0 0-.406.579l.254 1.445c.045.258.315.465.579.406a.51.51 0 0 0 .406-.579l-.254-1.445c-.045-.258-.315-.465-.579-.406z"/></svg>