<svg xmlns="http://www.w3.org/2000/svg" viewBox="0 0 64 64"><path fill="#2a293b" fill-rule="evenodd" d="M62.15,12.15,51.89,1.89a2.89,2.89,0,0,0-4.09,0L1.85,47.76a2.89,2.89,0,0,0,0,4.09L12.11,62.11a2.89,2.89,0,0,0,4.09,0l46-45.86A2.9,2.9,0,0,0,62.15,12.15Z"/><path fill="#e4e9f6" fill-rule="evenodd" d="M42.35,21.23a3.55,3.55,0,1,0,1,2.51A3.52,3.52,0,0,0,42.35,21.23Z"/><path fill="#49bc95" fill-rule="evenodd" d="M39.25,32.93a2.08,2.08,0,0,0-2.86,0,2,2,0,1,0,2.86,0Z"/><path fill="#eeb21e" fill-rule="evenodd" d="M35.16,28.84a2.06,2.06,0,0,0-2.86,0,2,2,0,0,0-.59,1.43,2,2,0,0,0,2,2,2.07,2.07,0,0,0,1.43-.59,2,2,0,0,0,.59-1.43A2,2,0,0,0,35.16,28.84Z"/><path fill="#17b4e9" fill-rule="evenodd" d="M31.2,24.88a2.08,2.08,0,0,0-2.86,0,2,2,0,1,0,2.86,0Z"/><path fill="#434356" fill-rule="evenodd" d="M22.93 46.31a2.63 2.63 0 0 0-3.71 0 2.63 2.63 0 0 0 0 3.7 2.63 2.63 0 0 0 3.71 0A2.68 2.68 0 0 0 22.93 46.31zM17.74 41.12a2.62 2.62 0 0 0-3.7 0 2.62 2.62 0 0 0 0 3.71 2.62 2.62 0 0 0 3.7 0A2.69 2.69 0 0 0 17.74 41.12z"/><rect width="1.56" height="1.56" x="17.06" y="52.68" fill="#6a6a7a" transform="rotate(-44.98 17.833 53.46)"/><rect width="1.56" height="1.56" x="14.6" y="50.22" fill="#6a6a7a" transform="rotate(-45.03 15.384 51)"/><path fill="#6a6a7a" fill-rule="evenodd" d="M13.31,54.3a.48.48,0,0,0-.19-.23.37.37,0,0,0-.39,0,.37.37,0,0,0-.09.49.46.46,0,0,0,.26.17.34.34,0,0,0,.41-.25A.45.45,0,0,0,13.31,54.3Z"/><polygon fill="#6a6a7a" fill-rule="evenodd" points="12.46 54.9 12.23 54.67 11.51 55.39 10.79 56.12 11.01 56.34 11.24 56.57 11.96 55.84 12.68 55.12 12.46 54.9"/><polygon fill="#6a6a7a" fill-rule="evenodd" points="11.55 53.99 11.33 53.77 10.61 54.49 9.88 55.21 10.11 55.43 10.34 55.66 11.06 54.94 11.78 54.22 11.55 53.99"/><path fill="#6a6a7a" fill-rule="evenodd" d="M11.49,52.67l-.24-.25L10.3,53l-1,.55L9.67,53c.5-.86.63-1.09.66-1.16a.41.41,0,0,0,0-.36.73.73,0,0,0-.18-.17.38.38,0,0,0-.33,0c-.08,0-.25.13-1.3.74l-.44.26.56-1,.56-.95L9,50.14l-.24-.24-.14.24c-.9,1.6-1.15,2.06-1.19,2.15a.51.51,0,0,0,0,.45.55.55,0,0,0,.17.17.55.55,0,0,0,.51,0l1-.57.5-.28s-.12.2-.24.43c-.55,1-.63,1.1-.67,1.2a.44.44,0,0,0,0,.17.42.42,0,0,0,.05.22.87.87,0,0,0,.17.16.49.49,0,0,0,.43,0c.09,0,.55-.28,1.89-1l.52-.29Z"/><rect width="1.56" height="1.56" x="9.55" y="45.17" fill="#6a6a7a" transform="rotate(-44.97 10.336 45.963)"/><path fill="#6a6a7a" fill-rule="evenodd" d="M12.4,53.4a.46.46,0,0,0-.18-.23.37.37,0,0,0-.47.09.38.38,0,0,0,0,.42.43.43,0,0,0,.26.17.35.35,0,0,0,.41-.25A.45.45,0,0,0,12.4,53.4Z"/><rect width="1.56" height="1.56" x="12.14" y="47.77" fill="#6a6a7a" transform="rotate(-45.04 12.926 48.548)"/><path fill="#434356" fill-rule="evenodd" d="M29 33.78c-.29-.28-.73.16-.44.44A.31.31 0 0 0 29 33.78zM27.83 32.63a.31.31 0 0 0-.44.44A.31.31 0 0 0 27.83 32.63zM27.92 34.84c-.33-.33-.84.18-.51.5S28.25 35.16 27.92 34.84zM26.66 31.46a.31.31 0 0 0-.44.44A.31.31 0 0 0 26.66 31.46zM26.8 33.66a.4.4 0 0 0-.56.56A.4.4 0 0 0 26.8 33.66zM26.75 36a.47.47 0 0 0-.66.66A.47.47 0 0 0 26.75 36zM25.6 34.86a.47.47 0 0 0-.66.66A.47.47 0 0 0 25.6 34.86zM25.39 37.36a.47.47 0 0 0-.66.66A.47.47 0 0 0 25.39 37.36zM24.43 33.69a.47.47 0 0 0-.66.66A.47.47 0 0 0 24.43 33.69zM24.24 36.22a.46.46 0 0 0-.65.65A.46.46 0 0 0 24.24 36.22zM24.07 38.69c-.33-.33-.84.18-.51.5S24.4 39 24.07 38.69zM23.07 35.05a.46.46 0 0 0-.66.65C22.84 36.13 23.5 35.47 23.07 35.05zM23 37.51a.4.4 0 0 0-.56.56A.4.4 0 0 0 23 37.51zM22.94 39.81a.31.31 0 0 0-.43.44C22.79 40.54 23.23 40.1 22.94 39.81zM21.8 38.67c-.29-.29-.73.15-.44.43A.31.31 0 0 0 21.8 38.67zM21.75 36.37c-.33-.33-.84.18-.51.5S22.08 36.69 21.75 36.37zM20.62 37.49a.31.31 0 0 0-.43.44C20.47 38.22 20.91 37.78 20.62 37.49zM25.6 32.52a.36.36 0 0 0-.51.51C25.42 33.35 25.93 32.84 25.6 32.52zM32.5 37.31c-.28-.29-.72.15-.44.44S32.79 37.59 32.5 37.31zM31.36 36.16a.31.31 0 0 0-.44.44A.31.31 0 0 0 31.36 36.16zM31.45 38.36c-.33-.32-.84.19-.51.51S31.77 38.69 31.45 38.36zM30.18 35c-.28-.29-.72.15-.44.44S30.47 35.27 30.18 35zM30.32 37.19a.4.4 0 0 0-.56.56C30.13 38.11 30.69 37.55 30.32 37.19zM30.27 39.54a.46.46 0 0 0-.65.65A.46.46 0 0 0 30.27 39.54zM29.13 38.39a.47.47 0 0 0-.66.66A.47.47 0 0 0 29.13 38.39zM28.92 40.89a.47.47 0 0 0-.66.66A.47.47 0 0 0 28.92 40.89zM28 37.21a.46.46 0 0 0-.65.66C27.72 38.3 28.38 37.64 28 37.21zM27.77 39.74a.47.47 0 0 0-.66.66A.47.47 0 0 0 27.77 39.74zM27.6 42.21c-.33-.32-.84.18-.51.51S27.92 42.54 27.6 42.21zM26.6 38.57a.47.47 0 0 0-.66.66A.47.47 0 0 0 26.6 38.57zM26.47 41a.4.4 0 0 0-.56.56C26.28 42 26.84 41.4 26.47 41zM26.47 43.34a.31.31 0 0 0-.44.44A.31.31 0 0 0 26.47 43.34zM25.32 42.19a.31.31 0 0 0-.44.44A.31.31 0 0 0 25.32 42.19zM25.28 39.89c-.33-.32-.84.18-.51.51S25.6 40.22 25.28 39.89zM24.15 41a.31.31 0 0 0-.44.44A.31.31 0 0 0 24.15 41zM29.13 36a.36.36 0 0 0-.51.51C29 36.88 29.45 36.37 29.13 36z"/><path fill="#e16052" fill-rule="evenodd" d="M52.26,6l-2-2A1.12,1.12,0,1,0,48.7,5.61l2,2A1.12,1.12,0,0,0,52.26,6Z"/><path fill="#49bc95" fill-rule="evenodd" d="M60.07,13.82l-2-2a1.12,1.12,0,1,0-1.58,1.58l2,2a1.13,1.13,0,0,0,1.58,0A1.11,1.11,0,0,0,60.07,13.82Z"/><path fill="#e4e9f6" fill-rule="evenodd" d="M51.61,17.14,47.1,12.62a1.33,1.33,0,1,0-1.89,1.88L49.73,19a1.33,1.33,0,1,0,1.88-1.88Z"/><path fill="#e4e9f6" fill-rule="evenodd" d="M51.61,12.62a1.33,1.33,0,0,0-1.88,0l-4.52,4.52A1.33,1.33,0,0,0,47.1,19l4.51-4.52A1.33,1.33,0,0,0,51.61,12.62Z"/></svg>