<svg xmlns="http://www.w3.org/2000/svg" data-name="1. Traveler" viewBox="0 0 64 64"><circle cx="22.5" cy="7" r="7" fill="#88b8f9"/><path fill="#f8cf6d" d="M49.5 36h-8a1 1 0 0 1-1-1V25a1 1 0 0 1 1-1h8a1 1 0 0 1 1 1v10a1 1 0 0 1-1 1Zm-7-2h6v-8h-6Z"/><path fill="#2f79f0" d="M48 24.55a2.5 2.5 0 0 0-2.91-2l-9.41 1.71-4.78-6.94c0-.08-.12-.16-.18-.24A3 3 0 0 0 28.41 16H16.57a3 3 0 0 0-1.08.2 3 3 0 0 0-1.56 1.37L8.36 27.71l-.07.12a2.45 2.45 0 0 0-.28.94l-1 11a2.5 2.5 0 1 0 5 .46l.94-10.38 2.14-3.21L14.5 41v20a3 3 0 0 0 6 .16l1-18.16h2l1 18.16a3 3 0 0 0 6-.16V41l-.62-15.61 2.62 3.11.09.1a2.47 2.47 0 0 0 2.36.86l11-2A2.5 2.5 0 0 0 48 24.55Z"/><circle cx="39.5" cy="62" r="2" fill="#0c3798"/><circle cx="51.5" cy="62" r="2" fill="#0c3798"/><rect width="22" height="30" x="34.5" y="32" fill="#ee7231" rx="2"/><path fill="#f8cf6d" d="M39.5 56a1 1 0 0 1-1-1V39a1 1 0 0 1 2 0v16a1 1 0 0 1-1 1zm6 0a1 1 0 0 1-1-1V39a1 1 0 0 1 2 0v16a1 1 0 0 1-1 1zm6 0a1 1 0 0 1-1-1V39a1 1 0 0 1 2 0v16a1 1 0 0 1-1 1z"/></svg>