<svg xmlns="http://www.w3.org/2000/svg" viewBox="0 0 48 48"><g data-name="Layer 2"><path fill="#53b4ed" d="M39.34,12.51a4,4,0,0,0-2.16-2.92c-1.81-.9-2-1.09-2.65-1.09-23.18,0-21.38-.07-22,.21C8.06,11,9.12,10,7,22.5c5.85,2,4.66,1.56,6,2v15H35v-15l6-2C40.49,19.47,39.31,12.37,39.34,12.51Z"/><path fill="#4288c7" d="M13 18v6.5l-1-.33V18A.5.5 0 0113 18zM36 24.17V18a.5.5 0 00-1 0v6.5z"/><path fill="#ff576b" d="M13 22.5v2l-6-2 .32-1.89zM41 22.5c-5.85 2-4.66 1.56-6 2v-2l5.68-1.89z"/><polygon fill="#e64e60" points="13 22.5 13 24.5 12 24.18 12 22.18 13 22.5"/><polygon fill="#e64e60" points="36 22.18 36 24.18 35 24.5 35 22.5 36 22.18"/><path fill="#ff576b" d="M31,8.5a7,7,0,0,1-14,0Z"/><path fill="#4288c7" d="M29.25,8.5a5.25,5.25,0,0,1-10.5,0Z"/></g></svg>