<svg xmlns="http://www.w3.org/2000/svg" xmlns:xlink="http://www.w3.org/1999/xlink" viewBox="0 0 64 64"><defs><linearGradient id="b" x1="4" x2="60" y1="32" y2="32" gradientUnits="userSpaceOnUse"><stop offset="0" stop-color="#015bbb"/><stop offset="1" stop-color="#02aff8"/></linearGradient><linearGradient id="c" x1="19" x2="45" y1="34" y2="34" gradientUnits="userSpaceOnUse"><stop offset="0" stop-color="#02aff8"/><stop offset="1" stop-color="#02dbf8"/></linearGradient><linearGradient id="a" x1="26" x2="38" y1="29" y2="29" gradientUnits="userSpaceOnUse"><stop offset="0" stop-color="#0c408d"/><stop offset="1" stop-color="#015bbb"/></linearGradient><linearGradient id="d" x1="22.42" x2="41.58" y1="42.5" y2="42.5" xlink:href="#a"/></defs><g data-name="User preference"><path fill="url(#b)" d="M60,37V27a2,2,0,0,0-2-2H53.91a22.94,22.94,0,0,0-1.47-3.54l2.89-2.9a2,2,0,0,0,0-2.82L48.26,8.67a2,2,0,0,0-2.82,0l-2.9,2.89A22.94,22.94,0,0,0,39,10.09V6a2,2,0,0,0-2-2H27a2,2,0,0,0-2,2v4.09a22.94,22.94,0,0,0-3.54,1.47l-2.9-2.89a2,2,0,0,0-2.82,0L8.67,15.74a2,2,0,0,0,0,2.82l2.89,2.9A22.94,22.94,0,0,0,10.09,25H6a2,2,0,0,0-2,2V37a2,2,0,0,0,2,2h4.09a22.94,22.94,0,0,0,1.47,3.54l-2.89,2.9a2,2,0,0,0,0,2.82l7.07,7.07a2,2,0,0,0,2.82,0l2.9-2.89A22.94,22.94,0,0,0,25,53.91V58a2,2,0,0,0,2,2H37a2,2,0,0,0,2-2V53.91a22.94,22.94,0,0,0,3.54-1.47l2.9,2.89a2,2,0,0,0,2.82,0l7.07-7.07a2,2,0,0,0,0-2.82l-2.89-2.9A22.94,22.94,0,0,0,53.91,39H58A2,2,0,0,0,60,37Z"/><path fill="url(#c)" d="M45,21.2v9.6a20.5,20.5,0,0,1-3.42,11.34A21,21,0,0,1,32,50a21,21,0,0,1-9.58-7.86A20.5,20.5,0,0,1,19,30.8V21.2L32,18Z"/><circle cx="32" cy="29" r="6" fill="url(#a)"/><path fill="url(#d)" d="M41.58,42.14A21,21,0,0,1,32,50a21,21,0,0,1-9.58-7.86,10,10,0,0,1,19.16,0Z"/></g></svg>