<svg xmlns="http://www.w3.org/2000/svg" version="1.1" xmlns:xlink="http://www.w3.org/1999/xlink" xmlns:svgjs="http://svgjs.dev/svgjs" width="2000" height="1500" viewBox="0 0 2000 1500"><rect width="2000" height="1500" fill="#ffffff"></rect><g transform="matrix(0.75,0,0,0.75,249.09091518498258,282.7536437246963)"><svg viewBox="0 0 396 247" data-background-color="#ffffff" preserveAspectRatio="xMidYMid meet" height="1247" width="2000" xmlns="http://www.w3.org/2000/svg" xmlns:xlink="http://www.w3.org/1999/xlink"><g id="tight-bounds" transform="matrix(1,0,0,1,0.23999839116459043,-0.09999999999999432)"><svg viewBox="0 0 395.52 247.2" height="247.2" width="395.52"><g><svg></svg></g><g><svg viewBox="0 0 395.52 247.2" height="247.2" width="395.52"><g><g><path xmlns="http://www.w3.org/2000/svg" d="M231.438 0.005c22.354 0 41.406 3.889 57.156 11.666v54.809l-0.367 0.367c-6.701-10.272-20.789-17.096-42.262-20.471-6.359-1.076-14.356-1.614-23.992-1.614-9.685 0-19.199 1.834-28.542 5.503-9.294 3.62-16.924 8.78-22.892 15.481-2.728 3.062-5.136 6.432-7.222 10.11l-52.984 0c5.408-16.432 13.884-30.563 25.428-42.393 22.012-22.305 53.904-33.458 95.677-33.458zM175.161 184.168c12.18 11.446 28.322 17.169 48.426 17.169 22.647 0 41.039-4.843 55.176-14.527 5.136-3.473 9.489-7.777 13.06-12.914l0.513 0.367v50.187c-18.245 15.164-42.849 22.745-73.812 22.745-36.392 0-64.934-11.593-85.625-34.778-10.486-11.676-18.196-25.367-23.131-41.073h55.037c2.908 4.806 6.36 9.081 10.356 12.824z" fill="#0063db" fill-rule="nonzero" stroke="none" stroke-width="1" stroke-linecap="butt" stroke-linejoin="miter" stroke-miterlimit="10" stroke-dasharray="" stroke-dashoffset="0" font-family="none" font-weight="none" font-size="none" text-anchor="none" style="mix-blend-mode: normal" data-fill-palette-color="tertiary"></path></g></g><g transform="matrix(1,0,0,1,0,86.64206097037354)"><svg viewBox="0 0 395.52 73.9158780592529" height="73.9158780592529" width="395.52"><g><svg viewBox="0 0 395.52 73.9158780592529" height="73.9158780592529" width="395.52"><g><svg viewBox="0 0 395.52 73.9158780592529" height="73.9158780592529" width="395.52"><g><svg viewBox="0 0 395.52 73.9158780592529" height="73.9158780592529" width="395.52"><g><svg viewBox="0 0 395.52 73.9158780592529" height="73.9158780592529" width="395.52"><g><svg viewBox="0 0 395.52 73.9158780592529" height="73.9158780592529" width="395.52"><g transform="matrix(1,0,0,1,0,0)"><svg width="395.52" viewBox="1.2699999809265137 -37.7400016784668 227.4199981689453 42.5" height="73.9158780592529" data-palette-color="#0063db"><path d="M18.75-33.08L18.75-33.08Q23.32-33.08 26.54-31.49L26.54-31.49 26.54-24.02 26.49-23.97Q25.12-26.07 20.73-26.76L20.73-26.76Q19.43-26.98 17.46-26.98 15.48-26.98 13.57-26.23 11.67-25.49 10.45-24.12L10.45-24.12Q8.08-21.46 8.08-16.53L8.08-16.53Q8.08-10.79 11.08-7.98L11.08-7.98Q13.57-5.64 17.68-5.64L17.68-5.64Q22.31-5.64 25.2-7.62L25.2-7.62Q26.25-8.33 26.98-9.38L26.98-9.38 27.05-9.33 27.05-2.49Q23.32 0.61 16.99 0.61L16.99 0.61Q9.55 0.61 5.32-4.13L5.32-4.13Q1.27-8.64 1.27-16.09L1.27-16.09Q1.27-23.97 5.71-28.52L5.71-28.52Q10.21-33.08 18.75-33.08ZM37.86-7.03L35.57 0.2Q33.47 0 30.66 0L30.66 0 28.73 0 39.35-29.76Q40.06-31.76 40.06-32.09 40.06-32.42 40.04-32.5L40.04-32.5 40.06-32.54Q41.65-32.47 43.43-32.47L43.43-32.47Q44.89-32.47 46.95-32.52L46.95-32.52 46.97-32.47Q46.92-32.37 46.92-32.2L46.92-32.2Q46.92-31.74 47.65-29.74L47.65-29.74 58.49 0.07Q58.01 0.05 57.35 0.05L57.35 0.05Q57.35 0.05 56.08 0L56.08 0Q55.47 0 54.98 0L54.98 0 51.19 0 48.9-7.03 37.86-7.03ZM39.72-12.89L46.99-12.89 43.31-24.24 39.72-12.89ZM74.85 4.76L68.28 4.76Q68.5 3.93 68.5 1.46L68.5 1.46 68.5 0.32Q66.25-0.07 64.45-0.89 62.64-1.71 61.74-2.69L61.74-2.69 62.45-8.84 62.62-8.98Q63.54-7.59 66.28-6.45L66.28-6.45Q69.14-5.25 71.94-5.25L71.94-5.25Q75.73-5.25 77.12-7.54L77.12-7.54Q77.53-8.23 77.53-8.94 77.53-9.64 77.28-10.18 77.02-10.72 76.39-11.23L76.39-11.23Q75.17-12.21 72.3-13.34 69.43-14.48 67.71-15.53 65.99-16.58 64.96-17.75L64.96-17.75Q63.06-19.9 63.06-23.19L63.06-23.19Q63.06-26.12 65.18-28.71L65.18-28.71Q67.4-31.42 70.94-32.5L70.94-32.5 70.94-34.45Q70.94-36.91 70.72-37.74L70.72-37.74 77.29-37.74Q77.19-36.33 77.19-34.72L77.19-34.72 77.19-32.91Q79.68-32.54 82-31.35L82-31.35 81.25-25.32 81.07-25.27Q77.44-27.25 74.36-27.25L74.36-27.25Q72.16-27.25 70.65-26.17L70.65-26.17Q69.31-25.2 69.31-23.85L69.31-23.85Q69.31-22.66 70.23-21.88L70.23-21.88Q71.94-20.46 74.74-19.54 77.53-18.63 79.22-17.66 80.9-16.7 81.93-15.58L81.93-15.58Q83.83-13.45 83.83-10.21L83.83-10.21Q83.83-6.71 81.61-3.86L81.61-3.86Q79.07-0.56 74.75 0.29L74.75 0.29 74.75 1.73Q74.85 4.69 74.85 4.76L74.85 4.76ZM98.14-13.79L98.14 0.15Q95.79 0 92.57 0L92.57 0 91.79 0 91.79-32.59Q93.3-32.47 93.94-32.47L93.94-32.47 94.94-32.47Q96.87-32.47 98.14-32.67L98.14-32.67 98.14-19.65 109.61-19.65 109.61-32.59Q111.64-32.47 113.55-32.47 115.47-32.47 115.96-32.67L115.96-32.67 115.96 0.15Q114.79 0 111.32 0L111.32 0 109.61 0 109.61-13.79 98.14-13.79ZM136.56-27L136.56 0.15Q135.39 0 130.53 0L130.53 0 129.75 0 129.75-27 124.92-27Q122.77-27 122.38-26.78 121.99-26.56 121.77-26.39L121.77-26.39 121.69-26.42 121.69-32.67 121.77-32.74Q122.57-32.47 126.11-32.47L126.11-32.47 141.42-32.47Q143.57-32.47 143.96-32.69 144.35-32.91 144.57-33.08L144.57-33.08 144.64-33.06 144.64-26.81 144.57-26.73Q143.76-27 140.22-27L140.22-27 136.56-27ZM166.05 0.2L160.39-12.62Q159.66-12.57 158.83-12.57 158-12.57 156.36-12.7L156.36-12.7 156.36 0 149.89 0 149.89-32.64Q153.31-33.08 158.29-33.08L158.29-33.08Q165.08-33.08 168.41-30.58 171.74-28.08 171.74-22.85L171.74-22.85Q171.74-18.8 168.69-15.92L168.69-15.92Q167.69-14.99 166.39-14.31L166.39-14.31 171.37-3.81Q172.84-0.56 173.62 0.05L173.62 0.05 173.5 0.17Q171.13-0.22 166.05 0.2L166.05 0.2ZM158.75-27.32L158.75-27.32Q157.51-27.32 156.36-27.2L156.36-27.2 156.36-17.87Q157.56-17.7 159.17-17.7 160.78-17.7 161.88-17.98 162.98-18.26 163.78-18.85L163.78-18.85Q165.51-20.14 165.51-22.73 165.51-25.32 163.71-26.37L163.71-26.37Q162.02-27.32 158.75-27.32ZM185.39-5.86L195.35-5.86Q196.86-5.86 197.45-6.15L197.45-6.15 197.54-6.13 197.3 0 179.01 0 179.01-32.64Q179.67-32.59 180.48-32.57L180.48-32.57 182.19-32.52Q183.9-32.47 185.9-32.47L185.9-32.47Q191.49-32.47 196.96-32.67L196.96-32.67Q196.69-30.52 196.69-26.93L196.69-26.93Q196.69-26.54 196.74-26.34L196.74-26.34 196.69-26.27Q195.42-26.64 193.08-26.64L193.08-26.64 185.39-26.64 185.39-20.41 191.17-20.41Q193.86-20.41 194.39-20.56L194.39-20.56 194.47-14.53Q193.3-14.65 191.44-14.65L191.44-14.65 185.39-14.65 185.39-5.86ZM210.29-9.89L210.29 0.15Q208.6 0 205.99 0L205.99 0 204.06 0 204.06-32.57 205.04-32.52Q206.06-32.47 206.57-32.47L206.57-32.47 207.28-32.47Q209.43-32.47 210.29-32.67L210.29-32.67 210.29-18.87 220.17-32.57Q221.74-32.47 222.81-32.47L222.81-32.47 224.15-32.47Q226.67-32.47 227.74-32.67L227.74-32.67 218.32-20.36 227.59-1.95Q228.18-0.61 228.69 0L228.69 0 227.2 0Q222.05 0 220.78 0.2L220.78 0.2Q220.51-1.44 220.05-2.66L220.05-2.66 213.83-14.53 210.29-9.89Z" opacity="1" transform="matrix(1,0,0,1,0,0)" fill="#0063db" class="undefined-text-0" data-fill-palette-color="primary" id="text-0"></path></svg></g></svg></g></svg></g></svg></g></svg></g></svg></g></svg></g></svg></g><defs></defs></svg><rect width="395.52" height="247.2" fill="none" stroke="none" visibility="hidden"></rect></g></svg></g></svg>